# xmcd CD database file
#
# Track frame offsets:
#	150
#	5295
#	13205
#	25034
#	49682
#	70955
#	99922
#	107186
#	124178
#	133300
#	147268
#	202012
#
# Disc length: 2919 seconds
#
# Revision: 0
# Processed by: cddbd v1.5.2PL0 Copyright (c) Steve Scherf et al.
# Submitted via: CDex 1.51
#
DISCID=a80b650c
DTITLE=Mose - Grein
DYEAR=2012
DGENRE=Blues
TTITLE0=Prooimion
TTITLE1=Walzer No 7
TTITLE2=Southern
TTITLE3=Grein
TTITLE4=Yester
TTITLE5=Big Black
TTITLE6=Ground
TTITLE7=Dure
TTITLE8=Nuke
TTITLE9=A/C
TTITLE10=Aviadores
TTITLE11=Coffin-Song
EXTD=YEAR: 2012
EXTT0=
EXTT1=
EXTT2=
EXTT3=
EXTT4=
EXTT5=
EXTT6=
EXTT7=
EXTT8=
EXTT9=
EXTT10=
EXTT11=
PLAYORDER=
